<mxfile host="app.diagrams.net" modified="2024-01-12T08:15:19.984Z" agent="Mozilla/5.0 (Windows NT 10.0; Win64; x64) AppleWebKit/537.36 (KHTML, like Gecko) Chrome/120.0.0.0 Safari/537.36" etag="4yTvt0BS-WI_8n2gKH6P" version="22.1.18" type="github">
  <diagram id="C5RBs43oDa-KdzZeNtuy" name="Page-1">
    <mxGraphModel dx="1434" dy="782" grid="1" gridSize="10" guides="1" tooltips="1" connect="1" arrows="1" fold="1" page="1" pageScale="1" pageWidth="827" pageHeight="1169" math="0" shadow="0">
      <root>
        <mxCell id="WIyWlLk6GJQsqaUBKTNV-0" />
        <mxCell id="WIyWlLk6GJQsqaUBKTNV-1" parent="WIyWlLk6GJQsqaUBKTNV-0" />
        <mxCell id="GHuDnu1H9yrj1tkJbOM3-7" style="edgeStyle=orthogonalEdgeStyle;rounded=0;orthogonalLoop=1;jettySize=auto;html=1;exitX=0.25;exitY=1;exitDx=0;exitDy=0;entryX=0.25;entryY=0;entryDx=0;entryDy=0;" edge="1" parent="WIyWlLk6GJQsqaUBKTNV-1" source="GHuDnu1H9yrj1tkJbOM3-0" target="GHuDnu1H9yrj1tkJbOM3-5">
          <mxGeometry relative="1" as="geometry">
            <Array as="points">
              <mxPoint x="165" y="265" />
              <mxPoint x="166" y="265" />
            </Array>
          </mxGeometry>
        </mxCell>
        <mxCell id="GHuDnu1H9yrj1tkJbOM3-0" value="" style="verticalLabelPosition=bottom;verticalAlign=top;html=1;shape=process;whiteSpace=wrap;rounded=1;size=0.14;arcSize=6;" vertex="1" parent="WIyWlLk6GJQsqaUBKTNV-1">
          <mxGeometry x="112.5" y="110" width="210" height="110" as="geometry" />
        </mxCell>
        <mxCell id="GHuDnu1H9yrj1tkJbOM3-1" value="Changes in the routing map" style="text;html=1;strokeColor=none;fillColor=none;align=center;verticalAlign=middle;whiteSpace=wrap;rounded=0;" vertex="1" parent="WIyWlLk6GJQsqaUBKTNV-1">
          <mxGeometry x="175" y="145" width="60" height="30" as="geometry" />
        </mxCell>
        <mxCell id="GHuDnu1H9yrj1tkJbOM3-2" value="main data source" style="shape=datastore;whiteSpace=wrap;html=1;" vertex="1" parent="WIyWlLk6GJQsqaUBKTNV-1">
          <mxGeometry x="460" y="280" width="125" height="130" as="geometry" />
        </mxCell>
        <mxCell id="GHuDnu1H9yrj1tkJbOM3-13" style="edgeStyle=orthogonalEdgeStyle;rounded=0;orthogonalLoop=1;jettySize=auto;html=1;" edge="1" parent="WIyWlLk6GJQsqaUBKTNV-1" source="GHuDnu1H9yrj1tkJbOM3-4">
          <mxGeometry relative="1" as="geometry">
            <mxPoint x="205" y="420" as="targetPoint" />
          </mxGeometry>
        </mxCell>
        <mxCell id="GHuDnu1H9yrj1tkJbOM3-14" style="edgeStyle=orthogonalEdgeStyle;rounded=0;orthogonalLoop=1;jettySize=auto;html=1;entryX=0;entryY=0.5;entryDx=0;entryDy=0;" edge="1" parent="WIyWlLk6GJQsqaUBKTNV-1" source="GHuDnu1H9yrj1tkJbOM3-4" target="GHuDnu1H9yrj1tkJbOM3-11">
          <mxGeometry relative="1" as="geometry" />
        </mxCell>
        <mxCell id="GHuDnu1H9yrj1tkJbOM3-4" value="temp_data storage" style="strokeWidth=2;html=1;shape=mxgraph.flowchart.direct_data;whiteSpace=wrap;" vertex="1" parent="WIyWlLk6GJQsqaUBKTNV-1">
          <mxGeometry x="105" y="500" width="200" height="140" as="geometry" />
        </mxCell>
        <mxCell id="GHuDnu1H9yrj1tkJbOM3-5" value="retrieve and make data changes in the temp_data" style="rounded=1;whiteSpace=wrap;html=1;" vertex="1" parent="WIyWlLk6GJQsqaUBKTNV-1">
          <mxGeometry x="115" y="310" width="205" height="100" as="geometry" />
        </mxCell>
        <mxCell id="GHuDnu1H9yrj1tkJbOM3-10" style="edgeStyle=orthogonalEdgeStyle;rounded=0;orthogonalLoop=1;jettySize=auto;html=1;exitX=0.75;exitY=0;exitDx=0;exitDy=0;entryX=0.719;entryY=1.027;entryDx=0;entryDy=0;entryPerimeter=0;" edge="1" parent="WIyWlLk6GJQsqaUBKTNV-1" source="GHuDnu1H9yrj1tkJbOM3-5" target="GHuDnu1H9yrj1tkJbOM3-0">
          <mxGeometry relative="1" as="geometry">
            <Array as="points">
              <mxPoint x="263" y="310" />
            </Array>
          </mxGeometry>
        </mxCell>
        <mxCell id="GHuDnu1H9yrj1tkJbOM3-11" value="Counter every 30 mins to check in the temp_data storeage.Update the data in the main storage. Clean the temo_data storage every morning and retrieve data from the main data source" style="rounded=1;whiteSpace=wrap;html=1;" vertex="1" parent="WIyWlLk6GJQsqaUBKTNV-1">
          <mxGeometry x="440" y="520" width="200" height="120" as="geometry" />
        </mxCell>
        <mxCell id="GHuDnu1H9yrj1tkJbOM3-12" style="edgeStyle=orthogonalEdgeStyle;rounded=0;orthogonalLoop=1;jettySize=auto;html=1;exitX=0.25;exitY=1;exitDx=0;exitDy=0;entryX=0.305;entryY=0;entryDx=0;entryDy=0;entryPerimeter=0;" edge="1" parent="WIyWlLk6GJQsqaUBKTNV-1" source="GHuDnu1H9yrj1tkJbOM3-5" target="GHuDnu1H9yrj1tkJbOM3-4">
          <mxGeometry relative="1" as="geometry" />
        </mxCell>
        <mxCell id="GHuDnu1H9yrj1tkJbOM3-15" style="edgeStyle=orthogonalEdgeStyle;rounded=0;orthogonalLoop=1;jettySize=auto;html=1;exitX=0;exitY=0.25;exitDx=0;exitDy=0;entryX=0.985;entryY=0.321;entryDx=0;entryDy=0;entryPerimeter=0;" edge="1" parent="WIyWlLk6GJQsqaUBKTNV-1" source="GHuDnu1H9yrj1tkJbOM3-11" target="GHuDnu1H9yrj1tkJbOM3-4">
          <mxGeometry relative="1" as="geometry" />
        </mxCell>
        <mxCell id="GHuDnu1H9yrj1tkJbOM3-16" style="edgeStyle=orthogonalEdgeStyle;rounded=0;orthogonalLoop=1;jettySize=auto;html=1;entryX=0.856;entryY=1.015;entryDx=0;entryDy=0;entryPerimeter=0;" edge="1" parent="WIyWlLk6GJQsqaUBKTNV-1" source="GHuDnu1H9yrj1tkJbOM3-11" target="GHuDnu1H9yrj1tkJbOM3-2">
          <mxGeometry relative="1" as="geometry" />
        </mxCell>
        <mxCell id="GHuDnu1H9yrj1tkJbOM3-17" style="edgeStyle=orthogonalEdgeStyle;rounded=0;orthogonalLoop=1;jettySize=auto;html=1;exitX=0.15;exitY=0.95;exitDx=0;exitDy=0;exitPerimeter=0;entryX=0.375;entryY=0.008;entryDx=0;entryDy=0;entryPerimeter=0;" edge="1" parent="WIyWlLk6GJQsqaUBKTNV-1" source="GHuDnu1H9yrj1tkJbOM3-2" target="GHuDnu1H9yrj1tkJbOM3-11">
          <mxGeometry relative="1" as="geometry" />
        </mxCell>
      </root>
    </mxGraphModel>
  </diagram>
</mxfile>
